<?xml version="1.0" encoding="UTF-8"?>
<svg xmlns="http://www.w3.org/2000/svg"
    xmlns:xlink="http://www.w3.org/1999/xlink"
    stroke="lightgreen"
    width="100%" height="100%" viewBox="0 0 24 24">
  <g fill="none" stroke-width="1">
    <circle cx="18" cy="4" r="2" fill="deeppink"/>
    <circle id="eye1" cx="4" cy="6" r="3" fill="deeppink"/>
    <text x="5" y="18" font-size="3" stroke-width="0.2">爸爸在家</text>
	<text x="1.5" y="23" font-size="3" stroke-width="0.2">陪</text>
	<svg x="4.5" y="20" stroke-width="0" viewBox="0 0 24 24" height="4" width="4">
		<g fill="deeppink">
			<circle cx="14.5" cy="10.5" r="1.25"/>
			<circle cx="9.5" cy="10.5" r="1.25"/>
			<path d="M22.94 12.66c.04-.21.06-.43.06-.66s-.02-.45-.06-.66c-.25-1.51-1.36-2.74-2.81-3.17-.53-1.12-1.28-2.1-2.19-2.91C16.36 3.85 14.28 3 12 3s-4.36.85-5.94 2.26c-.92.81-1.67 1.8-2.19 2.91-1.45.43-2.56 1.65-2.81 3.17-.04.21-.06.43-.06.66s.02.45.06.66c.25 1.51 1.36 2.74 2.81 3.17.52 1.11 1.27 2.09 2.17 2.89C7.62 20.14 9.71 21 12 21s4.38-.86 5.97-2.28c.9-.8 1.65-1.79 2.17-2.89 1.44-.43 2.55-1.65 2.8-3.17zM19 14c-.1 0-.19-.02-.29-.03-.2.67-.49 1.29-.86 1.86C16.6 17.74 14.45 19 12 19s-4.6-1.26-5.85-3.17c-.37-.57-.66-1.19-.86-1.86-.1.01-.19.03-.29.03-1.1 0-2-.9-2-2s.9-2 2-2c.1 0 .19.02.29.03.2-.67.49-1.29.86-1.86C7.4 6.26 9.55 5 12 5s4.6 1.26 5.85 3.17c.37.57.66 1.19.86 1.86.1-.01.19-.03.29-.03 1.1 0 2 .9 2 2s-.9 2-2 2zM7.5 14c.76 1.77 2.49 3 4.5 3s3.74-1.23 4.5-3h-9z"/>
		</g>
	</svg>
	<text x="8.5" y="23" font-size="3" stroke-width="0.2">快乐成长</text>
    <path d="M 3.5208 10.2525 q 6.95554 7.98853 16.9068 -4.76903" id="path"/>
  </g>
</svg>
